<svg width="20" height="20" viewBox="0 0 20 20" fill="none" xmlns="http://www.w3.org/2000/svg">
<g opacity="0.4">
<path d="M15.7227 8.02202C15.7227 8.02202 15.2985 13.2837 15.0524 15.5001C14.9352 16.5587 14.2813 17.179 13.2102 17.1986C11.1719 17.2353 9.1313 17.2376 7.0938 17.1947C6.06333 17.1736 5.42036 16.5455 5.30552 15.5056C5.05786 13.2697 4.63599 8.02202 4.63599 8.02202" stroke="white" stroke-width="1.5" stroke-linecap="round" stroke-linejoin="round"/>
<path d="M16.8034 5.49976H3.55493" stroke="white" stroke-width="1.5" stroke-linecap="round" stroke-linejoin="round"/>
<path d="M14.2505 5.49976C13.6372 5.49976 13.1091 5.06617 12.9888 4.46539L12.7989 3.51539C12.6818 3.0771 12.2849 2.77398 11.8325 2.77398H8.52551C8.07317 2.77398 7.67629 3.0771 7.55911 3.51539L7.36926 4.46539C7.24895 5.06617 6.72083 5.49976 6.10754 5.49976" stroke="white" stroke-width="1.5" stroke-linecap="round" stroke-linejoin="round"/>
</g>
</svg>
