<svg width="150" height="21" viewBox="0 0 150 21" fill="none" xmlns="http://www.w3.org/2000/svg">
<path d="M16.6254 13.9166H9.63444C9.43987 13.9166 9.28556 13.7238 9.28556 13.49C9.28556 13.2562 9.44323 13.0635 9.63444 13.0635H16.2732V1.95644H1.60016V10.0734C1.60016 10.3113 1.4425 10.5 1.25128 10.5C1.05672 10.5 0.902405 10.3072 0.902405 10.0734V1.52578C0.902405 1.28788 1.06007 1.09921 1.25128 1.09921H16.6254C16.82 1.09921 16.9743 1.29199 16.9743 1.52578V13.49C16.9743 13.7279 16.8166 13.9166 16.6254 13.9166Z" fill="url(#paint0_linear_19_116)"/>
<path d="M8.93665 10.5C8.00407 10.5 7.256 9.81502 7.19226 8.90857C7.17549 8.67478 7.31973 8.4656 7.51095 8.44919C7.68874 8.42459 7.87324 8.60095 7.88666 8.83884C7.91685 9.28591 8.3865 9.64685 8.9333 9.64685C9.50358 9.64685 9.98329 9.2572 9.98329 8.79373C9.98329 8.37537 9.65118 8.10877 8.94336 7.9488L8.86621 7.9324C7.73235 7.6781 7.1889 7.10798 7.1889 6.23025C7.1889 5.28689 7.97388 4.5199 8.93665 4.5199C9.86923 4.5199 10.6173 5.20486 10.681 6.1113C10.6978 6.34509 10.5536 6.55427 10.3624 6.57478C10.1846 6.59119 10.0001 6.41892 9.98664 6.18513C9.95645 5.73806 9.48681 5.37712 8.94001 5.37712C8.36972 5.37712 7.89002 5.76677 7.89002 6.23025C7.89002 6.64861 8.22212 6.91521 8.9333 7.07517L9.01045 7.09158C10.1443 7.34587 10.6844 7.91599 10.6844 8.79373C10.6844 9.73298 9.89942 10.5 8.93665 10.5Z" fill="url(#paint1_linear_19_116)"/>
<path d="M8.93665 11.3531C8.74208 11.3531 8.58777 11.1603 8.58777 10.9265V4.09334C8.58777 3.85545 8.74543 3.66678 8.93665 3.66678C9.13121 3.66678 9.28553 3.85955 9.28553 4.09334V10.9306C9.28553 11.1644 9.13121 11.3531 8.93665 11.3531Z" fill="url(#paint2_linear_19_116)"/>
<path d="M15.2266 3.6627H13.8277C13.6331 3.6627 13.4788 3.46992 13.4788 3.23613C13.4788 2.99824 13.6365 2.80957 13.8277 2.80957H15.2266C15.4211 2.80957 15.5754 3.00234 15.5754 3.23613C15.5754 3.47402 15.4211 3.6627 15.2266 3.6627Z" fill="url(#paint3_linear_19_116)"/>
<path d="M4.04567 19.9008C1.92556 19.9008 0.201294 17.7926 0.201294 15.2004C0.201294 12.6082 1.92556 10.5 4.04567 10.5C6.16578 10.5 7.89005 12.6082 7.89005 15.2004C7.89005 17.7926 6.16578 19.9008 4.04567 19.9008ZM4.04567 11.3531C2.31134 11.3531 0.899052 13.0799 0.899052 15.2004C0.899052 17.3209 2.31134 19.0477 4.04567 19.0477C5.78 19.0477 7.18893 17.3209 7.18893 15.2004C7.18893 13.0799 5.78 11.3531 4.04567 11.3531Z" fill="url(#paint4_linear_19_116)"/>
<path d="M4.04229 17.3373C3.103 17.3373 2.37169 16.8451 2.29789 16.1643C2.27441 15.9305 2.4086 15.7172 2.59981 15.6885C2.78431 15.6598 2.96546 15.8238 2.9923 16.0576C3.00571 16.1807 3.38814 16.4842 4.04229 16.4842C4.75346 16.4842 5.09228 16.1397 5.09228 16.0576C5.09228 16.0535 5.08221 15.791 4.07248 15.6393L3.99868 15.627C3.48878 15.549 2.29789 15.3727 2.29789 14.3514C2.29789 13.6213 3.04932 13.0717 4.04564 13.0717C4.98493 13.0717 5.71623 13.5639 5.79004 14.2447C5.81352 14.4785 5.67933 14.6918 5.48812 14.7205C5.29691 14.7451 5.12247 14.5852 5.09563 14.3514C5.08221 14.2283 4.69979 13.9248 4.04564 13.9248C3.36801 13.9248 2.99565 14.2447 2.99565 14.3514C2.99565 14.3555 3.00571 14.6221 4.01881 14.7697C4.02216 14.7697 4.08925 14.782 4.09261 14.782C4.60586 14.86 5.79004 15.0363 5.79004 16.0617C5.79339 16.7836 5.04196 17.3373 4.04229 17.3373Z" fill="url(#paint5_linear_19_116)"/>
<path d="M4.04566 18.1904C3.85109 18.1904 3.69678 17.9977 3.69678 17.7639V12.6369C3.69678 12.399 3.85444 12.2104 4.04566 12.2104C4.24022 12.2104 4.39454 12.4031 4.39454 12.6369V17.7639C4.39454 17.9977 4.23687 18.1904 4.04566 18.1904Z" fill="url(#paint6_linear_19_116)"/>
<path fill-rule="evenodd" clip-rule="evenodd" d="M36.7877 14.2141H41.0542L41.7481 16.8H44.6565L40.672 2.79999H37.422L33.2061 16.8H36.0532L36.7877 14.2141ZM40.1986 11.0751H37.6732L38.6697 7.70456L38.9715 6.42037L39.2534 7.68664L40.1986 11.0751Z" fill="url(#paint7_linear_19_116)"/>
<path d="M72.1374 2.79999V16.8H68.8657V11.7175H63.9584V16.8H60.687V2.79999H63.9584V7.90069H68.8657V2.79999H72.1374Z" fill="url(#paint8_linear_19_116)"/>
<path d="M58.3969 12.37C58.3969 9.99911 57.374 8.75293 54.9884 8.37234C54.5988 8.30293 53.4599 8.12999 52.7427 8.04352C50.8965 7.7494 50.3431 7.59352 50.3431 6.90117C50.3431 6.27823 50.7786 5.98411 52.437 5.98411C53.6118 5.98411 54.2711 6.31293 54.5288 6.81469C54.6587 7.05705 54.7047 7.24734 54.7166 7.43764H58.1032C58.0672 7.02234 57.9494 6.43411 57.7616 5.91499C57.1502 4.1844 55.6817 2.79999 52.5189 2.79999C48.9565 2.79999 47.0045 4.65146 47.0045 7.0744C47.0045 9.41058 48.1114 10.7776 51.0963 11.1759L51.2881 11.2009L51.6078 11.2438L53.1183 11.4526C54.6827 11.695 55.1043 11.8506 55.1043 12.5776C55.1043 13.2523 54.6947 13.6159 52.9664 13.6159C51.6258 13.6159 50.8386 13.3218 50.5549 12.8197C50.439 12.612 50.3551 12.3006 50.3331 12.0929H46.9465C46.9825 12.4391 47.0404 12.9929 47.1703 13.4429C47.7457 15.3465 49.2502 16.8 52.7427 16.8C56.4928 16.8 58.3969 15.2426 58.3969 12.37Z" fill="url(#paint9_linear_19_116)"/>
<path d="M27.8315 11.0618H30.916C30.8828 11.5456 30.8161 12.4963 30.5942 13.1704C29.8952 15.5037 28.2864 16.8 25.2353 16.8C22.7943 16.8 21.2076 15.8494 20.3533 14.242C19.7653 13.1704 19.4656 11.6839 19.4656 9.78272C19.4656 8.05434 19.7431 6.61971 20.2978 5.56533C21.1855 3.83696 22.7832 2.79999 25.2907 2.79999C28.708 2.79999 30.1282 4.70121 30.6498 6.72348C30.8272 7.43202 30.8828 8.22719 30.8938 8.65925H27.8093C27.7982 8.34809 27.7206 7.95057 27.5874 7.65669C27.2656 6.93087 26.5555 6.39505 25.2575 6.39505C24.0813 6.39505 23.227 6.86165 22.8386 7.81227C22.639 8.27901 22.5613 8.97041 22.5613 9.83453C22.5613 10.7679 22.6611 11.4075 22.872 11.8741C23.3047 12.8765 24.27 13.2567 25.2685 13.2567C26.4335 13.2567 27.2655 12.8938 27.6318 12.0642C27.765 11.7703 27.8204 11.4247 27.8315 11.0618Z" fill="url(#paint10_linear_19_116)"/>
<path d="M91.9536 11.0618H95.0381C95.0049 11.5456 94.9383 12.4963 94.7164 13.1704C94.0173 15.5037 92.4086 16.8 89.3574 16.8C86.9164 16.8 85.3298 15.8494 84.4754 14.242C83.8874 13.1704 83.5878 11.6839 83.5878 9.78272C83.5878 8.05434 83.8652 6.61971 84.4199 5.56533C85.3076 3.83696 86.9053 2.79999 89.4128 2.79999C92.8301 2.79999 94.2504 4.70121 94.7719 6.72348C94.9494 7.43202 95.0049 8.22719 95.016 8.65925H91.9315C91.9203 8.34809 91.8427 7.95057 91.7096 7.65669C91.3878 6.93087 90.6777 6.39505 89.3796 6.39505C88.2035 6.39505 87.3491 6.86165 86.9607 7.81227C86.7611 8.27901 86.6834 8.97041 86.6834 9.83453C86.6834 10.7679 86.7833 11.4075 86.9941 11.8741C87.4268 12.8765 88.3921 13.2567 89.3907 13.2567C90.5556 13.2567 91.3877 12.8938 91.7539 12.0642C91.8871 11.7703 91.9426 11.4247 91.9536 11.0618Z" fill="url(#paint11_linear_19_116)"/>
<path fill-rule="evenodd" clip-rule="evenodd" d="M114.65 14.2141H118.917L119.611 16.8H122.519L118.535 2.79999H115.285L111.069 16.8H113.916L114.65 14.2141ZM118.061 11.0751H115.536L116.532 7.70456L116.834 6.42037L117.116 7.68664L118.061 11.0751Z" fill="url(#paint12_linear_19_116)"/>
<path fill-rule="evenodd" clip-rule="evenodd" d="M103.059 2.79999C99.3037 2.79999 97.3282 5.61727 97.3282 9.75707C97.3282 14.4297 99.4014 16.8 103.059 16.8C107.085 16.8 108.779 14.0516 108.779 9.75707C108.779 5.39393 106.868 2.79999 103.059 2.79999ZM103.059 13.3474C100.921 13.3474 100.302 11.956 100.302 9.80875C100.302 7.69593 100.975 6.30451 103.048 6.30451C105.317 6.30451 105.826 7.86759 105.826 9.80875C105.826 11.8702 105.208 13.3474 103.059 13.3474Z" fill="url(#paint13_linear_19_116)"/>
<path d="M150 2.79999V16.8H146.728V11.7175H141.821V16.8H138.55V2.79999H141.821V7.90069H146.728V2.79999H150Z" fill="url(#paint14_linear_19_116)"/>
<path d="M133.175 11.0618H136.26C136.226 11.5456 136.16 12.4963 135.938 13.1704C135.239 15.5037 133.63 16.8 130.579 16.8C128.138 16.8 126.551 15.8494 125.697 14.242C125.109 13.1704 124.809 11.6839 124.809 9.78272C124.809 8.05434 125.087 6.61971 125.641 5.56533C126.529 3.83696 128.127 2.79999 130.634 2.79999C134.052 2.79999 135.472 4.70121 135.993 6.72348C136.171 7.43202 136.226 8.22719 136.237 8.65925H133.153C133.142 8.34809 133.064 7.95057 132.931 7.65669C132.609 6.93087 131.899 6.39505 130.601 6.39505C129.425 6.39505 128.571 6.86165 128.182 7.81227C127.982 8.27901 127.905 8.97041 127.905 9.83453C127.905 10.7679 128.005 11.4075 128.215 11.8741C128.648 12.8765 129.614 13.2567 130.612 13.2567C131.777 13.2567 132.609 12.8938 132.975 12.0642C133.108 11.7703 133.164 11.4247 133.175 11.0618Z" fill="url(#paint15_linear_19_116)"/>
<defs>
<linearGradient id="paint0_linear_19_116" x1="8.93836" y1="1.09921" x2="8.93836" y2="13.9166" gradientUnits="userSpaceOnUse">
<stop stop-color="#AE94F9"/>
<stop offset="1" stop-color="white" stop-opacity="0"/>
</linearGradient>
<linearGradient id="paint1_linear_19_116" x1="8.93665" y1="4.5199" x2="8.93665" y2="10.5" gradientUnits="userSpaceOnUse">
<stop stop-color="#AE94F9"/>
<stop offset="1" stop-color="white" stop-opacity="0"/>
</linearGradient>
<linearGradient id="paint2_linear_19_116" x1="8.93665" y1="3.66678" x2="8.93665" y2="11.3531" gradientUnits="userSpaceOnUse">
<stop stop-color="#AE94F9"/>
<stop offset="1" stop-color="white" stop-opacity="0"/>
</linearGradient>
<linearGradient id="paint3_linear_19_116" x1="14.5271" y1="2.80957" x2="14.5271" y2="3.6627" gradientUnits="userSpaceOnUse">
<stop stop-color="#AE94F9"/>
<stop offset="1" stop-color="white" stop-opacity="0"/>
</linearGradient>
<linearGradient id="paint4_linear_19_116" x1="4.04567" y1="10.5" x2="4.04567" y2="19.9008" gradientUnits="userSpaceOnUse">
<stop stop-color="#AE94F9"/>
<stop offset="1" stop-color="white" stop-opacity="0"/>
</linearGradient>
<linearGradient id="paint5_linear_19_116" x1="4.04396" y1="13.0717" x2="4.04396" y2="17.3373" gradientUnits="userSpaceOnUse">
<stop stop-color="#AE94F9"/>
<stop offset="1" stop-color="white" stop-opacity="0"/>
</linearGradient>
<linearGradient id="paint6_linear_19_116" x1="4.04566" y1="12.2104" x2="4.04566" y2="18.1904" gradientUnits="userSpaceOnUse">
<stop stop-color="#AE94F9"/>
<stop offset="1" stop-color="white" stop-opacity="0"/>
</linearGradient>
<linearGradient id="paint7_linear_19_116" x1="38.9313" y1="2.79999" x2="38.9313" y2="16.8" gradientUnits="userSpaceOnUse">
<stop stop-color="white"/>
<stop offset="1" stop-color="white" stop-opacity="0"/>
</linearGradient>
<linearGradient id="paint8_linear_19_116" x1="66.4122" y1="2.79999" x2="66.4122" y2="16.8" gradientUnits="userSpaceOnUse">
<stop stop-color="white"/>
<stop offset="1" stop-color="white" stop-opacity="0"/>
</linearGradient>
<linearGradient id="paint9_linear_19_116" x1="52.6717" y1="2.79999" x2="52.6717" y2="16.8" gradientUnits="userSpaceOnUse">
<stop stop-color="white"/>
<stop offset="1" stop-color="white" stop-opacity="0"/>
</linearGradient>
<linearGradient id="paint10_linear_19_116" x1="25.1908" y1="2.79999" x2="25.1908" y2="16.8" gradientUnits="userSpaceOnUse">
<stop stop-color="white"/>
<stop offset="1" stop-color="white" stop-opacity="0"/>
</linearGradient>
<linearGradient id="paint11_linear_19_116" x1="89.313" y1="2.79999" x2="89.313" y2="16.8" gradientUnits="userSpaceOnUse">
<stop stop-color="white"/>
<stop offset="1" stop-color="white" stop-opacity="0"/>
</linearGradient>
<linearGradient id="paint12_linear_19_116" x1="116.794" y1="2.79999" x2="116.794" y2="16.8" gradientUnits="userSpaceOnUse">
<stop stop-color="white"/>
<stop offset="1" stop-color="white" stop-opacity="0"/>
</linearGradient>
<linearGradient id="paint13_linear_19_116" x1="103.053" y1="2.79999" x2="103.053" y2="16.8" gradientUnits="userSpaceOnUse">
<stop stop-color="white"/>
<stop offset="1" stop-color="white" stop-opacity="0"/>
</linearGradient>
<linearGradient id="paint14_linear_19_116" x1="144.275" y1="2.79999" x2="144.275" y2="16.8" gradientUnits="userSpaceOnUse">
<stop stop-color="white"/>
<stop offset="1" stop-color="white" stop-opacity="0"/>
</linearGradient>
<linearGradient id="paint15_linear_19_116" x1="130.534" y1="2.79999" x2="130.534" y2="16.8" gradientUnits="userSpaceOnUse">
<stop stop-color="white"/>
<stop offset="1" stop-color="white" stop-opacity="0"/>
</linearGradient>
</defs>
</svg>
