<svg width="51" height="18" viewBox="0 0 51 18" fill="none" xmlns="http://www.w3.org/2000/svg">
<path d="M8.59572 17C8.46535 17 8.33497 17 8.2046 16.9926C3.91 16.8065 0.320932 13.4506 0.0218437 9.35794C-0.2389 5.84572 1.85472 2.56418 5.22905 1.18757C6.18767 0.800628 6.69382 1.09827 6.90855 1.31407C7.12328 1.52242 7.42237 2.00609 7.02359 2.89159C6.67081 3.68035 6.49443 4.5212 6.5021 5.38437C6.51744 8.6808 9.33961 11.4787 12.783 11.6126C13.2814 11.6349 13.7723 11.5977 14.2477 11.5159C15.26 11.3373 15.6818 11.7317 15.8429 11.9847C16.0039 12.2377 16.188 12.7809 15.5745 13.5845C13.9486 15.7424 11.3642 17 8.59572 17ZM1.16452 9.27609C1.42526 12.8181 4.53885 15.7201 8.25062 15.8764C10.7737 15.9954 13.1664 14.8793 14.6388 12.9297C14.7539 12.7734 14.8076 12.6618 14.8306 12.6023C14.7615 12.5948 14.6388 12.5874 14.4471 12.6246C13.8873 12.7213 13.3044 12.7585 12.7293 12.7362C8.68008 12.58 5.36709 9.28353 5.34409 5.39925C5.34409 4.37238 5.55115 3.3827 5.97294 2.45256C6.04963 2.28886 6.06497 2.17724 6.07264 2.11771C6.00362 2.11771 5.88091 2.13259 5.68152 2.21445C2.75966 3.40503 0.949785 6.24755 1.16452 9.27609Z" fill="#9C9BD6"/>
<path d="M42 14.4375C39 14.4375 36.5625 12 36.5625 9C36.5625 6 39 3.5625 42 3.5625C45 3.5625 47.4375 6 47.4375 9C47.4375 12 45 14.4375 42 14.4375ZM42 4.6875C39.6225 4.6875 37.6875 6.6225 37.6875 9C37.6875 11.3775 39.6225 13.3125 42 13.3125C44.3775 13.3125 46.3125 11.3775 46.3125 9C46.3125 6.6225 44.3775 4.6875 42 4.6875Z" fill="#FFBC7D"/>
<path d="M42 17.22C41.5875 17.22 41.25 16.9125 41.25 16.5V16.44C41.25 16.0275 41.5875 15.69 42 15.69C42.4125 15.69 42.75 16.0275 42.75 16.44C42.75 16.8525 42.4125 17.22 42 17.22ZM47.355 15.105C47.16 15.105 46.9725 15.03 46.8225 14.8875L46.725 14.79C46.4325 14.4975 46.4325 14.025 46.725 13.7325C47.0175 13.44 47.49 13.44 47.7825 13.7325L47.88 13.83C48.1725 14.1225 48.1725 14.595 47.88 14.8875C47.7375 15.03 47.55 15.105 47.355 15.105ZM36.645 15.105C36.45 15.105 36.2625 15.03 36.1125 14.8875C35.82 14.595 35.82 14.1225 36.1125 13.83L36.21 13.7325C36.5025 13.44 36.975 13.44 37.2675 13.7325C37.56 14.025 37.56 14.4975 37.2675 14.79L37.17 14.8875C37.0275 15.03 36.8325 15.105 36.645 15.105ZM49.5 9.75H49.44C49.0275 9.75 48.69 9.4125 48.69 9C48.69 8.5875 49.0275 8.25 49.44 8.25C49.8525 8.25 50.22 8.5875 50.22 9C50.22 9.4125 49.9125 9.75 49.5 9.75ZM34.56 9.75H34.5C34.0875 9.75 33.75 9.4125 33.75 9C33.75 8.5875 34.0875 8.25 34.5 8.25C34.9125 8.25 35.28 8.5875 35.28 9C35.28 9.4125 34.9725 9.75 34.56 9.75ZM47.2575 4.4925C47.0625 4.4925 46.875 4.4175 46.725 4.275C46.4325 3.9825 46.4325 3.51 46.725 3.2175L46.8225 3.12C47.115 2.8275 47.5875 2.8275 47.88 3.12C48.1725 3.4125 48.1725 3.885 47.88 4.1775L47.7825 4.275C47.64 4.4175 47.4525 4.4925 47.2575 4.4925ZM36.7425 4.4925C36.5475 4.4925 36.36 4.4175 36.21 4.275L36.1125 4.17C35.82 3.8775 35.82 3.405 36.1125 3.1125C36.405 2.82 36.8775 2.82 37.17 3.1125L37.2675 3.21C37.56 3.5025 37.56 3.975 37.2675 4.2675C37.125 4.4175 36.93 4.4925 36.7425 4.4925ZM42 2.28C41.5875 2.28 41.25 1.9725 41.25 1.56V1.5C41.25 1.0875 41.5875 0.75 42 0.75C42.4125 0.75 42.75 1.0875 42.75 1.5C42.75 1.9125 42.4125 2.28 42 2.28Z" fill="#FFBC7D"/>
</svg>
